<?xml version="1.0" standalone="no"?>
<!DOCTYPE svg PUBLIC "-//W3C//DTD SVG 20010904//EN"
 "http://www.w3.org/TR/2001/REC-SVG-20010904/DTD/svg10.dtd">
<svg version="1.0" xmlns="http://www.w3.org/2000/svg"
 width="512.000000pt" height="512.000000pt" viewBox="0 0 512.000000 512.000000"
 preserveAspectRatio="xMidYMid meet">

<g transform="translate(0.000000,512.000000) scale(0.100000,-0.100000)"
fill="#000000" stroke="none">
<path d="M4452 4259 c-56 -14 -43 -4 -1012 -713 -465 -340 -855 -625 -867
-633 -20 -13 -70 21 -920 639 -494 359 -916 662 -938 673 -97 48 -233 26 -317
-52 -90 -85 -83 60 -83 -1618 0 -1234 2 -1487 14 -1519 19 -54 86 -124 146
-152 46 -22 63 -24 223 -24 l172 0 0 1275 c0 708 4 1275 9 1275 4 0 383 -272
841 -605 l832 -605 27 19 c14 11 391 285 836 610 446 325 813 591 817 591 5 0
9 -577 10 -1282 l3 -1283 170 0 c151 1 175 3 216 22 71 32 125 86 149 149 20
54 20 69 20 1542 0 1433 -1 1488 -19 1528 -57 124 -197 194 -329 163z"/>
</g>
</svg>
