<?xml version="1.0" standalone="no"?>
<!DOCTYPE svg PUBLIC "-//W3C//DTD SVG 20010904//EN"
 "http://www.w3.org/TR/2001/REC-SVG-20010904/DTD/svg10.dtd">
<svg version="1.0" xmlns="http://www.w3.org/2000/svg"
 width="200.000000pt" height="200.000000pt" viewBox="0 0 200.000000 200.000000"
 preserveAspectRatio="xMidYMid meet">

<g transform="translate(0.000000,200.000000) scale(0.100000,-0.100000)"
fill="#000000" stroke="none">
<path d="M905 1622 c-56 -26 -118 -98 -143 -164 -43 -114 -38 -227 14 -351 14
-34 26 -71 25 -82 -2 -41 9 -63 39 -75 59 -24 110 38 73 89 -11 14 -30 27 -42
29 -65 10 -107 239 -66 361 20 60 76 127 122 146 50 21 121 19 161 -5 40 -25
91 -102 99 -153 4 -29 12 -41 31 -48 14 -5 26 -8 28 -6 2 1 -3 29 -10 60 -18
75 -61 144 -114 181 -56 39 -154 47 -217 18z"/>
<path d="M908 1353 c-8 -10 -18 -23 -22 -30 -11 -20 13 -63 41 -74 22 -8 32
-6 56 12 59 43 220 9 322 -69 54 -41 111 -125 121 -179 14 -75 -32 -160 -103
-189 -38 -16 -114 -18 -163 -4 -29 8 -38 7 -54 -10 -19 -19 -19 -19 10 -32 16
-6 67 -12 114 -12 69 -1 93 3 126 21 86 46 132 132 120 223 -23 167 -218 319
-409 320 -34 0 -57 6 -74 20 -32 25 -65 26 -85 3z"/>
<path d="M625 1179 c-53 -59 -77 -120 -77 -194 0 -108 54 -181 159 -211 154
-45 385 64 465 219 8 16 25 34 38 40 61 31 43 117 -25 117 -47 0 -72 -36 -56
-81 14 -39 -8 -79 -76 -138 -102 -91 -223 -134 -315 -113 -27 7 -64 22 -80 34
-36 25 -68 90 -68 138 0 45 33 116 72 156 22 24 28 38 23 53 -9 30 -18 27 -60
-20z"/>
<path d="M140 575 c0 -98 1 -105 20 -105 17 0 20 7 20 40 0 35 3 40 23 40 18
0 28 -10 42 -40 12 -26 25 -40 37 -40 22 0 22 1 1 44 -15 33 -15 37 0 54 22
25 22 75 -1 95 -13 12 -37 17 -80 17 l-62 0 0 -105z m111 66 c33 -27 16 -55
-35 -59 -35 -3 -36 -2 -36 31 0 18 3 37 7 40 12 13 41 7 64 -12z"/>
<path d="M1020 575 c0 -87 3 -105 15 -105 11 0 15 11 15 40 0 36 3 40 25 40
19 0 29 -10 45 -40 14 -27 27 -40 40 -40 20 0 20 0 0 40 l-20 40 20 28 c15 21
19 36 14 56 -8 35 -31 46 -98 46 l-56 0 0 -105z m104 72 c11 -8 17 -23 14 -38
-3 -21 -9 -24 -45 -27 -43 -3 -43 -3 -43 31 0 18 3 37 7 40 11 11 48 8 67 -6z"/>
<path d="M1490 644 c0 -31 -3 -35 -17 -29 -40 17 -52 16 -72 -4 -26 -26 -29
-101 -5 -125 18 -19 65 -21 82 -4 9 9 12 9 12 0 0 -7 9 -12 20 -12 19 0 20 7
20 105 0 98 -1 105 -20 105 -16 0 -20 -7 -20 -36z m-12 -56 c7 -7 12 -26 12
-43 0 -50 -33 -71 -64 -39 -31 30 -15 94 24 94 9 0 21 -5 28 -12z"/>
<path d="M842 632 c-8 -17 -9 -28 -2 -30 5 -2 10 -27 10 -56 0 -57 12 -76 47
-76 26 0 31 15 8 24 -11 4 -15 20 -15 56 0 38 4 50 15 50 8 0 15 4 15 9 0 5
-7 11 -15 15 -8 3 -15 12 -15 21 0 25 -34 17 -48 -13z"/>
<path d="M353 604 c-22 -22 -25 -32 -20 -67 3 -23 14 -47 23 -54 24 -18 89
-16 104 2 17 21 4 32 -20 17 -26 -16 -45 -15 -64 4 -25 24 -10 34 51 34 55 0
55 0 49 28 -15 61 -79 80 -123 36z m85 -26 c3 -15 -4 -18 -32 -18 -34 0 -47
15 -29 34 13 13 58 1 61 -16z"/>
<path d="M529 611 c-28 -22 -18 -41 11 -23 26 16 57 15 63 -2 8 -19 -1 -26
-32 -26 -53 0 -91 -51 -58 -78 7 -6 38 -10 70 -9 l57 1 0 58 c0 45 -5 63 -20
78 -25 25 -61 26 -91 1z m74 -77 c11 -11 -13 -44 -32 -44 -26 0 -44 23 -29 38
13 13 50 16 61 6z"/>
<path d="M695 605 c-29 -28 -33 -79 -9 -113 18 -27 84 -31 108 -6 32 32 8 48
-25 18 -37 -33 -83 22 -61 71 13 28 59 35 68 10 8 -19 34 -20 34 -1 0 20 -39
46 -68 46 -12 0 -34 -11 -47 -25z"/>
<path d="M1243 618 c-39 -19 -48 -94 -17 -129 23 -26 85 -25 109 1 16 18 17
20 1 20 -9 0 -25 -6 -36 -12 -23 -15 -53 -2 -58 26 -3 13 6 16 52 16 50 0 56
2 56 20 0 26 -43 70 -67 69 -10 0 -28 -5 -40 -11z m65 -30 c21 -21 13 -28 -28
-28 -43 0 -43 0 -34 24 7 19 45 21 62 4z"/>
<path d="M1560 567 c0 -64 20 -97 59 -97 15 0 32 5 39 12 9 9 12 9 12 0 0 -7
7 -12 15 -12 12 0 15 15 15 75 0 60 -3 75 -15 75 -11 0 -15 -13 -15 -54 0 -59
-16 -82 -50 -71 -17 5 -20 15 -20 66 0 52 -2 59 -20 59 -17 0 -20 -7 -20 -53z"/>
<path d="M1740 614 c0 -3 9 -19 21 -35 l21 -29 -21 -34 c-25 -40 -26 -46 -6
-46 9 0 21 11 27 25 6 14 14 25 18 25 4 0 13 -11 20 -25 7 -14 22 -25 32 -25
20 0 19 4 -13 51 -18 25 -17 27 7 62 23 34 23 37 6 37 -10 0 -25 -12 -32 -26
l-14 -25 -19 25 c-17 23 -47 36 -47 20z"/>
</g>
</svg>
